<svg width="395" height="146" viewBox="0 0 395 146" fill="none" xmlns="http://www.w3.org/2000/svg">
<g clip-path="url(#clip0_56_1628)">
<rect x="4" y="4" width="387" height="138" rx="69" stroke="black" stroke-width="8"/>
<g clip-path="url(#clip1_56_1628)">
<path fill-rule="evenodd" clip-rule="evenodd" d="M259.048 73C259.048 100.618 236.572 123 208.838 123C181.103 123 158.627 100.618 158.627 73C158.627 45.3815 181.103 23 208.838 23C205.158 23 201.479 23.4082 197.89 24.2047L200.189 34.4496C182.443 38.3823 169.185 54.1529 169.185 73C169.185 94.814 186.942 112.496 208.848 112.496C230.753 112.496 248.51 94.814 248.51 73H259.058H259.048ZM208.838 23V33.5038C227.774 33.5038 243.601 46.7157 247.55 64.3779L257.838 62.088C258.638 65.6722 259.048 69.3262 259.048 72.99C259.048 45.3815 236.562 23 208.838 23ZM208.838 102.56C221.055 102.56 231.543 95.2123 236.102 84.7085L226.434 80.507C223.505 87.2971 216.726 92.0562 208.838 92.0562C200.949 92.0562 194.311 87.3967 191.341 80.726L181.673 84.9275C186.272 95.3118 196.71 102.56 208.848 102.56H208.838Z" fill="black"/>
<path fill-rule="evenodd" clip-rule="evenodd" d="M276.155 34.3003V109.838H289.192V34.3003H276.155ZM299.94 34.3003V109.838H316.417C337.113 109.838 352 96.3672 352 71.6957C352 43.8682 337.233 34.3102 317.507 34.3102H299.94V34.3003ZM315.397 99.6229H313.027V44.5253H316.467C329.624 44.5253 338.792 51.2059 338.792 71.4867C338.752 90.1744 329.474 99.6328 315.357 99.6328H315.397V99.6229Z" fill="black"/>
<path fill-rule="evenodd" clip-rule="evenodd" d="M86.7916 23.4082C96.7896 22.1139 107.168 23.9159 116.126 28.5157C126.924 34.0016 135.582 43.5296 139.961 54.7702C144.13 65.2839 144.54 77.2214 141.101 87.994C138.002 97.9203 131.663 106.771 123.314 113.004C115.456 118.888 105.838 122.383 96.0198 122.91C85.6618 123.508 75.1638 120.79 66.4055 115.264C56.4375 109.012 48.7989 99.1748 45.3096 87.9641C42.2402 78.2867 42.2402 67.6734 45.3096 57.996C48.369 48.1991 54.5878 39.4376 62.7862 33.225C69.7349 27.9382 78.1033 24.5233 86.7916 23.4082Z" fill="#FC3F1D"/>
<path fill-rule="evenodd" clip-rule="evenodd" d="M75.4838 49.7722C71.2146 55.1784 70.8547 62.7053 72.6643 69.1171C74.504 75.1704 79.393 79.6308 84.4321 83.1752C79.693 90.1943 74.9239 97.2035 70.1948 104.243C74.1441 104.252 78.0933 104.243 82.0425 104.243C87.3715 96.3771 92.6905 88.5117 97.9894 80.6264C94.6901 78.3266 91.2407 76.2059 88.1013 73.6969C84.732 70.9391 82.5524 66.7873 82.5324 62.4166C82.0025 58.3047 84.0421 53.8941 87.8514 52.0323C91.8806 49.7722 96.6097 50.2401 101.059 50.2302C101.059 68.2409 101.059 86.2417 101.059 104.252C104.728 104.252 108.387 104.252 112.047 104.252V41.7575C105.008 41.8869 97.9494 41.419 90.9408 42.1159C85.1419 42.783 79.1731 45.043 75.5038 49.7722H75.4838Z" fill="#FEFEFE"/>
</g>
</g>
<defs>
<clipPath id="clip0_56_1628">
<rect width="395" height="146" fill="white"/>
</clipPath>
<clipPath id="clip1_56_1628">
<rect width="309" height="100" fill="white" transform="translate(43 23)"/>
</clipPath>
</defs>
</svg>
